<svg xmlns="http://www.w3.org/2000/svg" viewBox="0 0 1200 600">
  <defs>
    <linearGradient id="hero-bg" x1="0%" y1="0%" x2="100%" y2="100%">
      <stop offset="0%" style="stop-color:#0f172a"/>
      <stop offset="60%" style="stop-color:#1e293b"/>
      <stop offset="100%" style="stop-color:#1e40af"/>
    </linearGradient>
    <linearGradient id="glow" x1="0%" y1="0%" x2="100%" y2="100%">
      <stop offset="0%" style="stop-color:#3b82f6;stop-opacity:0.3"/>
      <stop offset="100%" style="stop-color:#8b5cf6;stop-opacity:0.1"/>
    </linearGradient>
  </defs>
  <rect width="1200" height="600" fill="url(#hero-bg)"/>
  <ellipse cx="900" cy="300" rx="400" ry="350" fill="url(#glow)"/>
  <rect x="60" y="160" width="220" height="6" rx="3" fill="#3b82f6" opacity="0.8"/>
  <rect x="60" y="190" width="480" height="52" rx="8" fill="#ffffff" opacity="0.1"/>
  <rect x="60" y="195" width="420" height="16" rx="4" fill="#e2e8f0" opacity="0.8"/>
  <rect x="60" y="220" width="360" height="16" rx="4" fill="#cbd5e1" opacity="0.6"/>
  <rect x="60" y="260" width="300" height="40" rx="8" fill="#3b82f6"/>
  <rect x="180" y="260" width="180" height="40" rx="8" fill="none" stroke="#64748b" stroke-width="1.5"/>
  <rect x="700" y="80" width="440" height="440" rx="24" fill="#1e293b" stroke="#334155" stroke-width="1"/>
  <rect x="740" y="120" width="360" height="260" rx="12" fill="#0f172a"/>
  <rect x="760" y="140" width="320" height="220" rx="8" fill="#1e3a5f"/>
  <circle cx="920" cy="250" r="80" fill="#3b82f6" opacity="0.2"/>
  <circle cx="920" cy="250" r="50" fill="#3b82f6" opacity="0.4"/>
  <rect x="740" y="400" width="360" height="60" rx="8" fill="#1e293b"/>
  <rect x="760" y="415" width="200" height="12" rx="3" fill="#475569"/>
  <rect x="760" y="435" width="140" height="10" rx="3" fill="#334155"/>
</svg>
